<?xml version="1.0" standalone="no"?>
<!DOCTYPE svg PUBLIC "-//W3C//DTD SVG 20010904//EN"
 "http://www.w3.org/TR/2001/REC-SVG-20010904/DTD/svg10.dtd">
<svg version="1.0" xmlns="http://www.w3.org/2000/svg"
 width="512.000000pt" height="512.000000pt" viewBox="0 0 512.000000 512.000000"
 preserveAspectRatio="xMidYMid meet">
<metadata>
Created by potrace 1.14, written by Peter Selinger 2001-2017
</metadata>
<g transform="translate(0.000000,512.000000) scale(0.100000,-0.100000)"
fill="#000000" stroke="none">
<path d="M95 5106 c-41 -18 -83 -69 -90 -109 -3 -18 -4 -1126 -3 -2464 l3
-2432 21 -27 c11 -15 33 -37 48 -48 l27 -21 2459 0 2459 0 27 21 c15 11 37 33
48 48 l21 27 0 2459 0 2459 -21 27 c-11 15 -33 37 -48 48 l-27 21 -2447 2
c-2019 2 -2452 0 -2477 -11z m1030 -1901 c91 -24 157 -72 191 -138 20 -37 34
-116 22 -123 -5 -3 -51 -3 -102 1 -89 7 -93 8 -103 35 -15 41 -54 62 -115 62
-58 1 -111 -21 -122 -47 -26 -68 16 -103 160 -139 165 -40 224 -74 271 -154
22 -38 27 -58 28 -116 0 -118 -57 -197 -175 -242 -66 -26 -266 -26 -339 0 -78
27 -154 103 -175 175 -30 102 -31 101 83 101 l99 0 7 -27 c17 -72 116 -117
203 -94 60 17 84 43 80 89 -4 50 -44 75 -166 102 -182 41 -268 100 -292 201
-52 214 186 381 445 314z m3186 -422 c78 -236 144 -434 147 -440 3 -10 -23
-13 -112 -13 l-116 0 -27 90 -27 90 -127 0 c-123 0 -127 -1 -132 -22 -2 -13
-30 -138 -61 -278 -31 -140 -59 -263 -62 -272 -5 -16 -19 -18 -119 -18 l-113
0 159 633 c88 347 162 638 164 645 3 9 41 12 144 12 l139 0 143 -427z m-2396
183 c83 -38 137 -108 151 -195 l7 -41 -102 0 c-93 0 -101 2 -101 19 0 27 -45
78 -76 85 -77 20 -134 -43 -142 -155 -8 -113 29 -184 100 -195 58 -10 100 21
122 89 5 15 19 17 101 17 109 0 106 2 79 -89 -21 -73 -92 -144 -165 -165 -128
-38 -276 -10 -353 68 -62 61 -88 125 -94 227 -8 142 36 243 135 312 85 60 236
70 338 23z m713 -7 c45 -22 71 -42 90 -72 27 -40 27 -42 30 -241 2 -111 1
-229 -3 -263 l-7 -63 -94 0 -94 0 0 46 0 46 -29 -31 c-40 -43 -89 -61 -164
-61 -147 0 -236 103 -206 239 22 98 90 142 249 161 105 13 140 29 140 64 0 36
-35 61 -87 61 -39 0 -49 -5 -74 -34 l-28 -34 -86 5 c-47 3 -89 8 -92 11 -10
10 17 73 48 110 82 99 267 125 407 56z m758 13 c49 -25 68 -46 96 -107 21 -47
23 -65 26 -297 l4 -248 -111 0 -111 0 0 224 0 223 -26 27 c-34 33 -98 36 -137
6 -39 -31 -47 -77 -47 -282 l0 -188 -105 0 -105 0 0 330 0 330 100 0 100 0 1
-62 c0 -54 2 -60 12 -43 23 38 84 91 118 103 47 16 138 8 185 -16z"/>
<path d="M3996 2842 c-16 -75 -31 -143 -34 -149 -3 -10 16 -13 78 -13 73 0 81
2 76 18 -16 56 -88 282 -89 282 -1 0 -15 -62 -31 -138z"/>
<path d="M2515 2615 c-5 -2 -37 -9 -69 -15 -93 -19 -132 -74 -86 -120 13 -13
33 -20 61 -20 77 0 118 39 119 113 0 45 -3 50 -25 42z"/>
</g>
</svg>
