<?xml version="1.0" standalone="no"?>
<!DOCTYPE svg PUBLIC "-//W3C//DTD SVG 20010904//EN"
 "http://www.w3.org/TR/2001/REC-SVG-20010904/DTD/svg10.dtd">
<svg version="1.0" xmlns="http://www.w3.org/2000/svg"
 width="394.000000pt" height="394.000000pt" viewBox="0 0 394.000000 394.000000"
 preserveAspectRatio="xMidYMid meet">
<metadata>
Created by potrace 1.14, written by Peter Selinger 2001-2017
</metadata>
<g transform="translate(0.000000,394.000000) scale(0.100000,-0.100000)"
fill="#000000" stroke="none">
<path d="M527 2510 c-108 -42 -159 -110 -159 -211 0 -116 63 -176 232 -219
115 -29 148 -45 161 -74 25 -54 -54 -106 -137 -90 -47 9 -94 49 -94 80 0 24
-2 24 -90 24 l-90 0 0 -37 c1 -89 77 -180 176 -209 41 -12 83 -15 154 -12 84
3 106 8 156 33 81 42 117 99 117 189 0 128 -62 187 -252 238 -117 32 -141 47
-141 89 0 37 37 62 94 63 54 1 91 -18 107 -56 l12 -29 86 3 c85 3 86 3 83 28
-10 89 -72 165 -160 194 -64 22 -194 20 -255 -4z"/>
<path d="M3091 2483 c-34 -127 -261 -1045 -261 -1053 0 -6 38 -10 98 -10 l98
0 12 58 c6 31 30 144 53 250 l42 192 108 0 107 0 23 -75 22 -75 98 0 c55 0 99
3 99 7 0 4 -55 173 -122 375 l-123 368 -122 0 -122 0 -10 -37z m169 -278 c17
-55 33 -108 36 -117 5 -16 -2 -18 -61 -18 l-67 0 7 38 c15 84 48 216 51 207 2
-5 17 -55 34 -110z"/>
<path d="M1163 2310 c-96 -48 -142 -130 -143 -255 0 -87 12 -130 53 -192 63
-94 205 -132 335 -89 81 27 152 119 152 199 0 15 -11 17 -82 17 l-83 0 -20
-37 c-25 -46 -61 -61 -105 -43 -43 18 -63 61 -63 140 -1 97 33 150 96 150 32
0 73 -33 81 -65 6 -24 9 -25 91 -25 74 0 85 2 85 18 0 77 -70 170 -147 196
-26 9 -79 16 -118 16 -60 0 -82 -5 -132 -30z"/>
<path d="M1772 2323 c-24 -8 -58 -30 -77 -48 -31 -32 -63 -100 -52 -112 3 -2
41 -7 85 -10 73 -5 80 -4 86 14 11 36 77 54 117 33 22 -12 27 -68 6 -75 -7 -3
-54 -11 -104 -19 -155 -23 -213 -72 -213 -181 0 -65 26 -114 76 -143 33 -19
51 -22 115 -20 65 3 81 7 112 31 l36 27 3 -32 3 -33 81 -3 81 -3 7 32 c3 17 6
115 6 218 0 174 -2 190 -22 231 -25 49 -70 84 -127 100 -52 14 -169 11 -219
-7z m178 -378 c-13 -38 -52 -65 -95 -65 -28 0 -65 31 -65 55 0 25 37 53 77 60
21 4 49 10 63 14 31 10 37 -12 20 -64z"/>
<path d="M2240 2055 l0 -285 90 0 90 0 0 170 c0 133 3 177 15 200 28 55 85 66
132 26 l28 -24 3 -191 3 -191 90 0 89 0 0 213 c0 213 0 214 -27 268 -36 71
-84 99 -168 99 -69 0 -123 -26 -155 -76 l-20 -29 0 53 0 52 -85 0 -85 0 0
-285z"/>
</g>
</svg>
